<svg class='logo' width="75" height="49" viewBox="0 0 75 49" fill="none" xmlns="http://www.w3.org/2000/svg">
<path d="M31.7625 36.7125V41H32.375V40.3875H32.9875V39.775H32.375V36.7125H31.7625ZM33.6 39.775V40.3875H34.2125V41H34.825V36.7125H34.2125V39.775H33.6ZM33.6 38.55V39.775H32.9875V38.55H33.6ZM39.725 41H37.275V40.3875H36.6625V38.55H37.275V37.9375H39.1125V38.55H39.725V39.775H37.275V40.3875H39.725V41ZM39.1125 39.1625V38.55H37.275V39.1625H39.1125ZM41.5625 41V36.7125H42.175V37.9375H44.0125V38.55H44.625V40.3875H44.0125V41H41.5625ZM44.0125 40.3875V38.55H42.175V40.3875H44.0125ZM20.125 42.7125V47H17.675V46.3875H17.0625V44.55H17.675V43.9375H19.5125V42.7125H20.125ZM19.5125 46.3875V44.55H17.675V46.3875H19.5125ZM25.025 47H22.575V46.3875H21.9625V44.55H22.575V43.9375H24.4125V44.55H25.025V45.775H22.575V46.3875H25.025V47ZM24.4125 45.1625V44.55H22.575V45.1625H24.4125ZM28.0875 47V46.3875H27.475V45.775H26.8625V43.9375H27.475V45.775H28.0875V46.3875H28.7V45.775H29.3125V43.9375H29.925V45.775H29.3125V46.3875H28.7V47H28.0875ZM34.825 47H32.375V46.3875H31.7625V44.55H32.375V43.9375H34.2125V44.55H34.825V45.775H32.375V46.3875H34.825V47ZM34.2125 45.1625V44.55H32.375V45.1625H34.2125ZM39.1125 46.3875V47H37.275V46.3875H37.8875V43.325H37.275V42.7125H38.5V46.3875H39.1125ZM41.5625 46.3875V44.55H42.175V43.9375H44.0125V44.55H44.625V46.3875H44.0125V47H42.175V46.3875H41.5625ZM44.0125 46.3875V44.55H42.175V46.3875H44.0125ZM46.4625 48.225V43.9375H48.9125V44.55H49.525V46.3875H48.9125V47H47.075V48.225H46.4625ZM48.9125 46.3875V44.55H47.075V46.3875H48.9125ZM54.425 47H51.975V46.3875H51.3625V44.55H51.975V43.9375H53.8125V44.55H54.425V45.775H51.975V46.3875H54.425V47ZM53.8125 45.1625V44.55H51.975V45.1625H53.8125ZM56.2625 47V43.9375H56.875V44.55H57.4875V45.1625H56.875V47H56.2625ZM59.325 43.9375V44.55H57.4875V43.9375H59.325Z" fill="white"/>
<path d="M9.6748 33.3613C7.94629 32.873 6.64258 32.0674 5.76367 30.9443C4.89453 29.8311 4.45996 28.3564 4.45996 26.5205V23.6055C4.45996 21.2324 3.4248 20.0459 1.35449 20.0459V17.9219C3.4248 17.9219 4.45996 16.7402 4.45996 14.377V11.3301C4.47949 9.54297 4.91406 8.10254 5.76367 7.00879C6.62305 5.90527 7.92676 5.10449 9.6748 4.60645L10.2314 6.29102C8.19043 6.94531 7.16992 8.64941 7.16992 11.4033V14.3623C7.16992 16.5791 6.35449 18.1221 4.72363 18.9912C6.35449 19.8701 7.16992 21.4277 7.16992 23.6641V26.6816C7.19922 29.3672 8.21973 31.0322 10.2314 31.6768L9.6748 33.3613Z" fill="white"/>
<path d="M64.6953 31.6768C66.6777 31.042 67.7031 29.4258 67.7715 26.8281V23.6055C67.7715 21.3496 68.6553 19.8115 70.4229 18.9912C68.6553 18.1904 67.7715 16.6523 67.7715 14.377V11.4033C67.7715 8.64941 66.751 6.94531 64.71 6.29102L65.2666 4.60645C66.9951 5.09473 68.2939 5.89063 69.1631 6.99414C70.0322 8.08789 70.4717 9.53809 70.4814 11.3447V14.4209C70.4814 16.7549 71.5166 17.9219 73.5869 17.9219V20.0459C71.5166 20.0459 70.4814 21.2324 70.4814 23.6055V26.5645C70.4814 28.4004 70.0371 29.8701 69.1484 30.9736C68.2695 32.0771 66.9756 32.873 65.2666 33.3613L64.6953 31.6768Z" fill="white"/>
<path d="M19 30V7H23V26H34V30H19Z" fill="white"/>
<path d="M38 30V7H42V10H45V13H49V10H52V7H56V30H52V14H49V17H45V14H42V30H38Z" fill="white"/>
</svg>
