<svg width="676" height="262" viewBox="0 0 676 262" fill="none" xmlns="http://www.w3.org/2000/svg">
<path d="M426.35 163.435C425.956 162.752 425.895 162.001 426.166 161.182C426.439 160.363 426.746 159.606 427.09 158.911C427.496 158.18 428.117 157.035 428.955 155.475C429.855 153.88 430.825 152.12 431.865 150.195C432.932 148.172 434.074 146.065 435.291 143.872C436.472 141.618 437.583 139.528 438.623 137.603C439.69 135.58 440.642 133.789 441.48 132.23C442.38 130.634 443.014 129.44 443.384 128.647C443.842 127.721 444.243 126.91 444.587 126.215C444.93 125.52 445.328 124.918 445.779 124.409C446.194 123.839 446.676 123.312 447.225 122.829C447.837 122.311 448.639 121.765 449.632 121.192C450.528 122.744 450.841 124.218 450.572 125.615C450.302 127.012 449.816 128.534 449.112 130.182C448.654 131.109 447.808 132.797 446.574 135.247C445.367 137.6 444.089 140.117 442.74 142.799C441.356 145.419 440.078 147.936 438.907 150.35C437.699 152.703 436.818 154.329 436.261 155.229C435.679 156.228 435.621 157.13 436.087 157.937L436.248 158.217C436.284 158.279 436.351 158.323 436.449 158.349L461.45 148.756C461.521 148.881 461.624 148.987 461.758 149.075C461.829 149.199 461.901 149.323 461.973 149.447C462.071 149.474 462.137 149.518 462.173 149.58C463.177 151.318 463.06 153.123 461.824 154.996C461.638 155.103 461.234 155.336 460.614 155.694C460.055 156.017 459.452 156.406 458.805 156.863C458.185 157.221 457.595 157.561 457.036 157.884C456.478 158.207 456.074 158.44 455.826 158.583C455.019 159.049 453.822 159.699 452.234 160.532C450.673 161.268 448.92 162.032 446.977 162.823C444.998 163.552 442.951 164.237 440.838 164.877C438.725 165.518 436.696 165.945 434.75 166.158C432.866 166.335 431.159 166.245 429.628 165.887C428.159 165.494 427.067 164.676 426.35 163.435ZM476.575 158.397C476.037 157.466 475.682 156.636 475.51 155.908C475.364 155.082 475.769 154.062 476.723 152.849C476.718 151.693 476.724 149.911 476.739 147.501C476.72 145.03 476.698 142.27 476.676 139.221C476.716 136.136 476.746 132.891 476.766 129.486C476.786 126.081 476.816 122.835 476.856 119.75C476.896 116.665 476.923 113.918 476.939 111.509C476.981 109.002 477.031 107.152 477.088 105.961C477.099 104.547 477.198 102.711 477.383 100.452C477.533 98.1309 477.776 95.7562 478.112 93.3277C478.412 90.8371 478.81 88.3728 479.306 85.9346C479.802 83.4966 480.397 81.3735 481.091 79.5658C481.179 79.432 481.392 79.2266 481.728 78.9496C482.029 78.6104 482.242 78.405 482.366 78.3333C482.903 79.2643 483.257 80.8808 483.427 83.1826C483.66 85.4485 483.769 88.075 483.756 91.0622C483.707 93.9873 483.574 97.1261 483.358 100.479C483.142 103.831 482.92 107.104 482.695 110.296C482.469 113.489 482.278 116.455 482.121 119.194C482.026 121.897 481.996 124.066 482.03 125.702C482.038 127.435 482.128 129.742 482.301 132.621C482.5 135.403 482.629 138.35 482.687 141.461C482.709 144.51 482.652 147.564 482.514 150.623C482.403 153.584 482.041 156.11 481.428 158.202C481.349 158.496 481.089 158.977 480.647 159.646C480.206 160.315 479.923 160.685 479.799 160.756C479.427 160.971 479.044 161.027 478.653 160.922C478.287 160.719 477.984 160.48 477.743 160.205C477.466 159.869 477.238 159.545 477.059 159.235C476.843 158.863 476.682 158.583 476.575 158.397ZM516.526 128.255C516.28 126.825 516.41 125.259 516.919 123.559C517.489 121.823 518.281 120.042 519.295 118.214C520.371 116.352 521.626 114.51 523.058 112.69C524.49 110.87 525.945 109.161 527.422 107.564C528.863 105.903 530.285 104.421 531.683 103.117C533.108 101.715 534.325 100.598 535.336 99.7672C535.3 99.7051 535.246 99.612 535.174 99.4878C535.129 99.2658 535.088 99.1237 535.052 99.0617C534.586 98.2547 533.744 97.8718 532.527 97.9128C531.309 97.9538 530.367 98.0423 529.701 98.1787C528.714 98.3342 527 98.6619 524.558 99.1617C522.115 99.6615 519.5 100.22 516.711 100.837C513.948 101.356 511.346 101.865 508.903 102.365C506.461 102.865 504.764 103.224 503.814 103.441C502.104 102.773 501.029 101.987 500.59 101.082C500.176 100.079 500.198 99.1146 500.657 98.188C501.115 97.2614 501.867 96.4135 502.912 95.6443C504.02 94.8392 505.204 94.2383 506.465 93.8415C507.752 93.3468 509.009 93.1589 510.236 93.278C511.464 93.397 512.488 93.8814 513.31 94.7312L539.749 90.6396C542.902 90.2255 545.107 91.1046 546.362 93.2771C546.934 94.2702 547.024 95.2123 546.627 96.103C546.293 96.9579 545.715 97.7473 544.891 98.4711C544.067 99.1949 543.176 99.8745 542.22 100.51C541.289 101.047 540.512 101.496 539.892 101.854L520.856 127.369C520.732 127.441 520.626 127.543 520.537 127.677C520.475 127.713 520.382 127.767 520.258 127.838C519.7 128.161 519.118 128.372 518.514 128.473C517.936 128.475 517.274 128.403 516.526 128.255Z" fill="#242424"/>
<path d="M134.419 153.734C134.025 153.051 133.964 152.3 134.236 151.481C134.508 150.662 134.816 149.905 135.16 149.21C135.565 148.479 136.187 147.334 137.024 145.775C137.924 144.179 138.894 142.419 139.935 140.494C141.001 138.472 142.143 136.364 143.36 134.172C144.542 131.917 145.652 129.827 146.693 127.903C147.76 125.88 148.712 124.089 149.549 122.529C150.449 120.934 151.084 119.74 151.454 118.947C151.912 118.02 152.313 117.209 152.656 116.514C153 115.819 153.397 115.218 153.848 114.709C154.264 114.138 154.746 113.611 155.295 113.129C155.906 112.611 156.708 112.065 157.701 111.491C158.597 113.043 158.911 114.517 158.641 115.914C158.372 117.311 157.885 118.834 157.181 120.481C156.723 121.408 155.877 123.097 154.644 125.547C153.436 127.899 152.158 130.416 150.81 133.098C149.426 135.718 148.148 138.235 146.976 140.65C145.769 143.002 144.887 144.628 144.331 145.529C143.749 146.527 143.69 147.43 144.156 148.237L144.318 148.516C144.353 148.578 144.42 148.622 144.518 148.649L169.519 139.056C169.591 139.18 169.694 139.286 169.827 139.375C169.899 139.499 169.971 139.623 170.042 139.747C170.14 139.773 170.207 139.817 170.243 139.879C171.246 141.617 171.13 143.423 169.894 145.295C169.707 145.403 169.304 145.636 168.683 145.994C168.125 146.316 167.522 146.706 166.875 147.162C166.254 147.52 165.664 147.861 165.106 148.183C164.547 148.506 164.144 148.739 163.895 148.882C163.088 149.348 161.891 149.998 160.304 150.832C158.742 151.568 156.99 152.331 155.046 153.122C153.067 153.851 151.021 154.536 148.908 155.177C146.795 155.817 144.765 156.244 142.82 156.457C140.936 156.635 139.228 156.544 137.698 156.187C136.229 155.793 135.136 154.976 134.419 153.734ZM182.325 142.959C182.079 141.529 182.209 139.964 182.717 138.264C183.288 136.527 184.08 134.746 185.094 132.919C186.17 131.056 187.425 129.215 188.857 127.395C190.289 125.575 191.744 123.866 193.221 122.268C194.663 120.608 196.083 119.126 197.482 117.822C198.907 116.42 200.124 115.303 201.134 114.472C201.098 114.41 201.045 114.316 200.973 114.192C200.928 113.97 200.887 113.828 200.851 113.766C200.385 112.959 199.543 112.576 198.326 112.617C197.108 112.658 196.166 112.747 195.5 112.883C194.513 113.039 192.799 113.366 190.357 113.866C187.914 114.366 185.298 114.924 182.51 115.541C179.747 116.06 177.145 116.57 174.702 117.07C172.259 117.57 170.563 117.928 169.613 118.146C167.903 117.478 166.828 116.691 166.388 115.787C165.975 114.784 165.997 113.819 166.456 112.892C166.914 111.966 167.666 111.118 168.711 110.349C169.819 109.544 171.003 108.943 172.264 108.546C173.551 108.051 174.808 107.863 176.035 107.982C177.262 108.101 178.287 108.586 179.109 109.436L205.547 105.344C208.702 104.93 210.906 105.809 212.16 107.982C212.734 108.975 212.822 109.917 212.426 110.807C212.092 111.662 211.513 112.452 210.69 113.176C209.866 113.899 208.976 114.579 208.019 115.214C207.087 115.752 206.311 116.2 205.691 116.558L186.655 142.073C186.531 142.145 186.425 142.248 186.336 142.381C186.274 142.417 186.181 142.471 186.057 142.543C185.498 142.865 184.917 143.077 184.313 143.177C183.735 143.18 183.072 143.107 182.325 142.959Z" fill="#242424"/>
</svg>
