<svg width="150" height="150" viewBox="0 0 150 150" fill="none" xmlns="http://www.w3.org/2000/svg">
<circle cx="75" cy="75" r="75" fill="#C50000"/>
<path d="M66.2589 53.22C66.3922 52.86 66.4589 52.5467 66.4589 52.28C66.4589 52.0133 66.3922 51.8 66.2589 51.64C66.5656 51.5067 66.8522 51.44 67.1189 51.44C67.3989 51.44 67.6322 51.5267 67.8189 51.7C68.0056 51.8733 68.0989 52.1 68.0989 52.38C68.0989 52.66 68.0456 52.9333 67.9389 53.2L63.2789 64.98C63.0922 65.4467 62.9122 65.7667 62.7389 65.94C62.5656 66.1 62.3056 66.18 61.9589 66.18C61.6256 66.18 61.3656 66.0933 61.1789 65.92C61.0056 65.7467 60.8389 65.4333 60.6789 64.98L56.2389 53.18C56.0389 52.6333 55.7922 52.2733 55.4989 52.1C55.8322 51.7 56.2256 51.5 56.6789 51.5C56.9589 51.5 57.1922 51.6 57.3789 51.8C57.5789 52 57.7589 52.3133 57.9189 52.74L62.0789 64.42L66.2589 53.22ZM73.5105 64.66H77.5505C78.3105 64.66 78.8771 64.38 79.2505 63.82C79.4238 63.8867 79.5638 64.0067 79.6705 64.18C79.7771 64.34 79.8305 64.5067 79.8305 64.68C79.8305 65.56 79.0971 66 77.6305 66H73.4305C72.4038 66 71.6438 65.7933 71.1505 65.38C70.6571 64.9667 70.4105 64.2933 70.4105 63.36V53.18C70.4105 52.78 70.2438 52.5133 69.9105 52.38C70.2305 51.9 70.7638 51.66 71.5105 51.66H77.8305C79.1638 51.66 79.8305 52.0067 79.8305 52.7C79.8305 53.1133 79.6371 53.3867 79.2505 53.52C78.8771 53.1867 78.3105 53.02 77.5505 53.02H72.0905V57.9H76.3105C77.0438 57.9 77.5638 57.96 77.8705 58.08C78.1771 58.2 78.3305 58.4333 78.3305 58.78C78.3305 59.1267 78.1705 59.38 77.8505 59.54C77.4905 59.3533 76.9238 59.26 76.1505 59.26H72.0905V63.3C72.0905 63.78 72.1971 64.1267 72.4105 64.34C72.6371 64.5533 73.0038 64.66 73.5105 64.66ZM84.7634 58.78H87.3434C88.4634 58.78 89.3101 58.5267 89.8834 58.02C90.4568 57.5133 90.7434 56.8067 90.7434 55.9C90.7434 54.98 90.4568 54.2667 89.8834 53.76C89.3101 53.24 88.4634 52.98 87.3434 52.98H84.7634V58.78ZM91.7834 66.16C91.4101 66.16 91.0968 66.0667 90.8434 65.88C90.5901 65.68 90.2701 65.3067 89.8834 64.76L86.6034 60.1H84.7834V64.76C84.7834 65.1467 84.9501 65.4067 85.2834 65.54C85.0034 65.9667 84.6434 66.18 84.2034 66.18C83.4701 66.18 83.1034 65.7133 83.1034 64.78V53.18C83.1034 52.7933 82.9368 52.5267 82.6034 52.38C82.9234 51.9 83.4568 51.66 84.2034 51.66H87.3634C88.9234 51.66 90.1701 52.0333 91.1034 52.78C92.0501 53.5267 92.5234 54.5133 92.5234 55.74C92.5234 56.9667 92.1701 57.94 91.4634 58.66C90.7701 59.3667 89.8168 59.8133 88.6034 60L91.9034 64.4C92.2368 64.8533 92.6501 65.1 93.1434 65.14C92.8368 65.82 92.3834 66.16 91.7834 66.16ZM28.3493 83.94H25.7693V90.3H28.3493C29.456 90.3 30.296 90.0133 30.8693 89.44C31.456 88.8533 31.7493 88.0867 31.7493 87.14C31.7493 86.18 31.456 85.4067 30.8693 84.82C30.296 84.2333 29.456 83.94 28.3493 83.94ZM25.2093 82.66H28.4293C29.976 82.66 31.2226 83.0667 32.1693 83.88C33.116 84.68 33.5893 85.76 33.5893 87.12C33.5893 88.4667 33.116 89.5467 32.1693 90.36C31.2226 91.16 29.976 91.56 28.4293 91.56H25.7893V95.76C25.7893 96.1467 25.956 96.4067 26.2893 96.54C26.0093 96.9667 25.6493 97.18 25.2093 97.18C24.476 97.18 24.1093 96.7133 24.1093 95.78V84.18C24.1093 83.7933 23.9426 83.5267 23.6093 83.38C23.9293 82.9 24.4626 82.66 25.2093 82.66ZM38.1912 89.78H40.7712C41.8912 89.78 42.7378 89.5267 43.3112 89.02C43.8845 88.5133 44.1712 87.8067 44.1712 86.9C44.1712 85.98 43.8845 85.2667 43.3112 84.76C42.7378 84.24 41.8912 83.98 40.7712 83.98H38.1912V89.78ZM45.2112 97.16C44.8378 97.16 44.5245 97.0667 44.2712 96.88C44.0178 96.68 43.6978 96.3067 43.3112 95.76L40.0312 91.1H38.2112V95.76C38.2112 96.1467 38.3778 96.4067 38.7112 96.54C38.4312 96.9667 38.0712 97.18 37.6312 97.18C36.8978 97.18 36.5312 96.7133 36.5312 95.78V84.18C36.5312 83.7933 36.3645 83.5267 36.0312 83.38C36.3512 82.9 36.8845 82.66 37.6312 82.66H40.7912C42.3512 82.66 43.5978 83.0333 44.5312 83.78C45.4778 84.5267 45.9512 85.5133 45.9512 86.74C45.9512 87.9667 45.5978 88.94 44.8912 89.66C44.1978 90.3667 43.2445 90.8133 42.0312 91L45.3312 95.4C45.6645 95.8533 46.0778 96.1 46.5712 96.14C46.2645 96.82 45.8112 97.16 45.2112 97.16ZM51.7888 94.44C52.6955 95.44 53.8155 95.94 55.1488 95.94C56.4822 95.94 57.5422 95.3467 58.3288 94.16C58.9955 93.1733 59.3288 91.9333 59.3288 90.44C59.3288 90.1467 59.3155 89.84 59.2888 89.52C59.1555 87.6533 58.6288 86.22 57.7088 85.22C56.7888 84.2067 55.6555 83.7 54.3088 83.7C52.9755 83.7 51.9155 84.3 51.1288 85.5C50.4755 86.4867 50.1488 87.7067 50.1488 89.16C50.1488 91.48 50.6955 93.24 51.7888 94.44ZM54.7488 82.5C56.6422 82.5 58.1488 83.16 59.2688 84.48C60.4022 85.7867 60.9688 87.56 60.9688 89.8C60.9688 92.04 60.4022 93.8333 59.2688 95.18C58.1488 96.5133 56.6422 97.18 54.7488 97.18C52.8555 97.18 51.3355 96.5133 50.1888 95.18C49.0555 93.8467 48.4888 92.0667 48.4888 89.84C48.4888 87.6133 49.0555 85.8333 50.1888 84.5C51.3355 83.1667 52.8555 82.5 54.7488 82.5ZM68.6204 97.16C67.9004 97.16 67.5404 96.6667 67.5404 95.68L67.5604 90.66L63.9004 84.24C63.5804 83.7467 63.1804 83.4933 62.7004 83.48C62.9004 82.8267 63.3004 82.5 63.9004 82.5C64.5004 82.5 65.0004 82.8467 65.4004 83.54L68.5204 89.1L71.7404 84.08C71.9537 83.7867 72.0604 83.5333 72.0604 83.32C72.0604 83.0933 71.9804 82.9 71.8204 82.74C72.1004 82.58 72.4204 82.5 72.7804 82.5C73.1404 82.5 73.4004 82.58 73.5604 82.74C73.7337 82.9 73.8204 83.1133 73.8204 83.38C73.8204 83.6467 73.7137 83.96 73.5004 84.32L69.2204 90.6L69.2004 95.8C69.2004 96.2267 69.3204 96.5733 69.5604 96.84C69.2804 97.0533 68.9671 97.16 68.6204 97.16ZM79.5945 95.66H83.6345C84.3945 95.66 84.9611 95.38 85.3345 94.82C85.5078 94.8867 85.6478 95.0067 85.7545 95.18C85.8611 95.34 85.9145 95.5067 85.9145 95.68C85.9145 96.56 85.1811 97 83.7145 97H79.5145C78.4878 97 77.7278 96.7933 77.2345 96.38C76.7411 95.9667 76.4945 95.2933 76.4945 94.36V84.18C76.4945 83.78 76.3278 83.5133 75.9945 83.38C76.3145 82.9 76.8478 82.66 77.5945 82.66H83.9145C85.2478 82.66 85.9145 83.0067 85.9145 83.7C85.9145 84.1133 85.7211 84.3867 85.3345 84.52C84.9611 84.1867 84.3945 84.02 83.6345 84.02H78.1745V88.9H82.3945C83.1278 88.9 83.6478 88.96 83.9545 89.08C84.2611 89.2 84.4145 89.4333 84.4145 89.78C84.4145 90.1267 84.2545 90.38 83.9345 90.54C83.5745 90.3533 83.0078 90.26 82.2345 90.26H78.1745V94.3C78.1745 94.78 78.2811 95.1267 78.4945 95.34C78.7211 95.5533 79.0878 95.66 79.5945 95.66ZM99.2074 84.9C99.2074 85.2333 99.1008 85.4933 98.8874 85.68C98.6741 85.8667 98.4074 85.96 98.0874 85.96C97.7808 85.96 97.5408 85.9133 97.3674 85.82C97.3808 85.7267 97.3874 85.64 97.3874 85.56C97.3874 85.1067 97.1808 84.7 96.7674 84.34C96.3541 83.98 95.7074 83.8 94.8274 83.8C93.6008 83.8 92.5274 84.3267 91.6074 85.38C90.7008 86.42 90.2474 87.8867 90.2474 89.78C90.2474 91.6733 90.6608 93.1267 91.4874 94.14C92.3141 95.14 93.4674 95.64 94.9474 95.64C95.7341 95.64 96.4674 95.48 97.1474 95.16C97.8274 94.84 98.3874 94.46 98.8274 94.02C98.9208 94.0333 99.0074 94.1 99.0874 94.22C99.1808 94.3267 99.2274 94.4733 99.2274 94.66C99.2274 95.1533 98.7541 95.7 97.8074 96.3C96.8741 96.8867 95.7674 97.18 94.4874 97.18C92.7141 97.18 91.2541 96.54 90.1074 95.26C88.9741 93.98 88.4074 92.2333 88.4074 90.02C88.4074 87.8067 89.0541 86 90.3474 84.6C91.6408 83.2 93.2474 82.5 95.1674 82.5C96.3141 82.5 97.2741 82.7333 98.0474 83.2C98.8208 83.6667 99.2074 84.2333 99.2074 84.9ZM102.563 82.66H110.243C110.989 82.66 111.363 82.96 111.363 83.56C111.363 83.8267 111.256 84.0667 111.043 84.28C110.709 84.0933 110.269 84 109.723 84H106.943V95.76C106.943 96.12 107.109 96.38 107.443 96.54C107.176 96.9667 106.836 97.18 106.423 97.18C105.663 97.18 105.283 96.7133 105.283 95.78V84H102.023C101.289 84 100.923 83.7067 100.923 83.12C100.923 82.84 101.023 82.6 101.223 82.4C101.583 82.5733 102.029 82.66 102.563 82.66ZM116.359 94.44C117.266 95.44 118.386 95.94 119.719 95.94C121.052 95.94 122.112 95.3467 122.899 94.16C123.566 93.1733 123.899 91.9333 123.899 90.44C123.899 90.1467 123.886 89.84 123.859 89.52C123.726 87.6533 123.199 86.22 122.279 85.22C121.359 84.2067 120.226 83.7 118.879 83.7C117.546 83.7 116.486 84.3 115.699 85.5C115.046 86.4867 114.719 87.7067 114.719 89.16C114.719 91.48 115.266 93.24 116.359 94.44ZM119.319 82.5C121.212 82.5 122.719 83.16 123.839 84.48C124.972 85.7867 125.539 87.56 125.539 89.8C125.539 92.04 124.972 93.8333 123.839 95.18C122.719 96.5133 121.212 97.18 119.319 97.18C117.426 97.18 115.906 96.5133 114.759 95.18C113.626 93.8467 113.059 92.0667 113.059 89.84C113.059 87.6133 113.626 85.8333 114.759 84.5C115.906 83.1667 117.426 82.5 119.319 82.5Z" fill="#EEEEEE"/>
</svg>
